# xmcd
#
# Track frame offsets: 
#        150
#        9511
#        18994
#        28140
#        37672
#        46875
#        53846
#        62306
#        68690
#        80856
#        93687
#        102022
#        107593
#        114653
#        124465
#        132320
#        141993
#        153323
#        162866
#        171175
#        180546
#        186183
#        193774
#        202451
#        210420
#        215093
#        222694
#        232119
#        243633
#        247145
#        253550
#        262883
#        269177
#        278718
#        286875
#        294365
#        302835
#        311001
#        318889
#
# Disc length: 4401 seconds
#
# Revision: 1
# Processed by: cddbd v1.5.2PL0 Copyright (c) Steve Scherf et al.
# Submitted via: ExactAudioCopy v1.1
#
DISCID=57112f27
DTITLE=Tennessee Ernie Ford - The Tennessee Ernie Ford Shows 1953
DYEAR=2005
DGENRE=Country
TTITLE0=Rock City Boogie
TTITLE1=Shotgun Boogie
TTITLE2=Railroadin'
TTITLE3=Real Gone Okie
TTITLE4=Tennessee Local
TTITLE5=Hambone
TTITLE6=South [Instrumental]
TTITLE7=Hey! Mr. Cotton-Picker
TTITLE8=Baby Blues
TTITLE9=Mama Don't Allow
TTITLE10=Hometown Stomp [Instrumental]
TTITLE11=Little Red Wagon
TTITLE12=Speeding West
TTITLE13=Cow Cow Boogie
TTITLE14=When My Sugar Walks
TTITLE15=In the Mood [Instrumental]
TTITLE16=I Don't Know
TTITLE17=I Don't Hurt Anymore
TTITLE18=How Come You Do Me
TTITLE19=Catfish Boogie
TTITLE20=Song of the Wanderer
TTITLE21=Hey! Good Lokkin!
TTITLE22=Full Time Job
TTITLE23=Keep Hubbin' It
TTITLE24=Mule Shoe Rag
TTITLE25=Sunday
TTITLE26=Steel Guitar Rag
TTITLE27=You Don't Have To Be A Baby
TTITLE28=Tennessee Wagoner
TTITLE29=Truck Driver's Ride
TTITLE30=Do The Hucklebuck
TTITLE31=Wild Dog
TTITLE32=Trouble In Mind
TTITLE33=Pliney Jane
TTITLE34=Perdido
TTITLE35=40 Cups Of Coffee
TTITLE36=San Antonio Rose
TTITLE37=Talking That New Vitamine
TTITLE38=Mocking Bird
EXTD=
EXTT0=
EXTT1=
EXTT2=
EXTT3=
EXTT4=
EXTT5=
EXTT6=
EXTT7=
EXTT8=
EXTT9=
EXTT10=
EXTT11=
EXTT12=
EXTT13=
EXTT14=
EXTT15=
EXTT16=
EXTT17=
EXTT18=
EXTT19=
EXTT20=
EXTT21=
EXTT22=
EXTT23=
EXTT24=
EXTT25=
EXTT26=
EXTT27=
EXTT28=
EXTT29=
EXTT30=
EXTT31=
EXTT32=
EXTT33=
EXTT34=
EXTT35=
EXTT36=
EXTT37=
EXTT38=
PLAYORDER=
